<?xml version="1.0" standalone="no"?>
<!DOCTYPE svg PUBLIC "-//W3C//DTD SVG 20010904//EN"
 "http://www.w3.org/TR/2001/REC-SVG-20010904/DTD/svg10.dtd">
<svg version="1.0" xmlns="http://www.w3.org/2000/svg"
 width="1200.000000pt" height="1200.000000pt" viewBox="0 0 1200.000000 1200.000000"
 preserveAspectRatio="xMidYMid meet">

<g transform="translate(0.000000,1200.000000) scale(0.100000,-0.100000)"
fill="#000000" stroke="none">
<path d="M5735 11833 c-407 -17 -838 -83 -1264 -193 -1450 -375 -2736 -1365
-3531 -2715 -105 -180 -291 -558 -368 -750 -264 -658 -396 -1331 -409 -2086
-6 -336 3 -523 38 -799 211 -1677 1149 -3216 2517 -4129 148 -99 357 -226 507
-308 1158 -636 2587 -846 3935 -577 823 164 1562 484 2244 971 637 455 1186
1050 1592 1725 601 1001 888 2099 845 3234 -18 453 -64 785 -167 1199 -307
1233 -1040 2376 -2029 3166 -470 375 -1058 707 -1601 904 -744 270 -1529 391
-2309 358z m715 -848 c304 -36 567 -87 826 -160 1160 -326 2205 -1066 2880
-2037 422 -608 685 -1288 779 -2013 9 -66 25 -189 35 -273 84 -647 19 -1322
-190 -1977 -138 -431 -380 -922 -649 -1317 -319 -468 -738 -907 -1186 -1241
-754 -563 -1598 -879 -2500 -937 -569 -36 -768 -34 -1114 11 -2042 265 -3830
1924 -4221 3916 -100 508 -127 1220 -65 1697 184 1407 1005 2723 2190 3511
356 236 625 372 1072 539 424 159 814 252 1193 285 69 6 143 13 165 15 103 10
658 -3 785 -19z"/>
<path d="M8155 9233 c-555 -436 -985 -787 -2250 -1838 -517 -429 -1025 -850
-1129 -935 l-188 -155 38 -7 c22 -4 416 -7 877 -7 l837 -1 138 210 c75 116
449 682 831 1258 568 857 858 1296 1085 1645 10 15 17 27 15 27 -2 0 -116 -88
-254 -197z"/>
<path d="M5635 5678 c-29 -50 -511 -781 -1115 -1693 -471 -711 -896 -1356
-925 -1405 -11 -18 16 2 280 209 475 373 899 718 1928 1574 779 647 1196 991
1449 1197 l167 135 -37 7 c-20 4 -417 7 -882 7 l-846 1 -19 -32z"/>
</g>
</svg>
